<svg xmlns="http://www.w3.org/2000/svg" width="1000" height="700"><g transform="translate(50,20)"><g transform="translate(0,530)" fill="none" font-size="10" font-family="sans-serif" text-anchor="middle"><path class="domain" stroke="currentColor" d="M0.5,6V0.5H870.5V6"></path><g class="tick" opacity="1" transform="translate(0.5,0)"><line stroke="currentColor" y2="6"></line><text fill="currentColor" y="9" dy="0.71em">FRONTEND_2018_CW31-32</text></g><g class="tick" opacity="1" transform="translate(870.5,0)"><line stroke="currentColor" y2="6"></line><text fill="currentColor" y="9" dy="0.71em">FRONTEND_2018_CW33-34</text></g></g><g fill="none" font-size="10" font-family="sans-serif" text-anchor="end"><path class="domain" stroke="currentColor" d="M-6,530.5H0.5V0.5H-6"></path><g class="tick" opacity="1" transform="translate(0,530.5)"><line stroke="currentColor" x2="-6"></line><text fill="currentColor" x="-9" dy="0.32em">0</text></g><g class="tick" opacity="1" transform="translate(0,471.6111111111111)"><line stroke="currentColor" x2="-6"></line><text fill="currentColor" x="-9" dy="0.32em">2</text></g><g class="tick" opacity="1" transform="translate(0,412.72222222222223)"><line stroke="currentColor" x2="-6"></line><text fill="currentColor" x="-9" dy="0.32em">4</text></g><g class="tick" opacity="1" transform="translate(0,353.83333333333337)"><line stroke="currentColor" x2="-6"></line><text fill="currentColor" x="-9" dy="0.32em">6</text></g><g class="tick" opacity="1" transform="translate(0,294.94444444444446)"><line stroke="currentColor" x2="-6"></line><text fill="currentColor" x="-9" dy="0.32em">8</text></g><g class="tick" opacity="1" transform="translate(0,236.05555555555554)"><line stroke="currentColor" x2="-6"></line><text fill="currentColor" x="-9" dy="0.32em">10</text></g><g class="tick" opacity="1" transform="translate(0,177.16666666666669)"><line stroke="currentColor" x2="-6"></line><text fill="currentColor" x="-9" dy="0.32em">12</text></g><g class="tick" opacity="1" transform="translate(0,118.27777777777777)"><line stroke="currentColor" x2="-6"></line><text fill="currentColor" x="-9" dy="0.32em">14</text></g><g class="tick" opacity="1" transform="translate(0,59.388888888888914)"><line stroke="currentColor" x2="-6"></line><text fill="currentColor" x="-9" dy="0.32em">16</text></g><g class="tick" opacity="1" transform="translate(0,0.5)"><line stroke="currentColor" x2="-6"></line><text fill="currentColor" x="-9" dy="0.32em">18</text></g><text fill="#000" transform="rotate(-90)" y="6" dy="0.71em" text-anchor="end">Store Points<g></g></text></g><path transform="translate(0,0)" fill="none" stroke="steelblue" stroke-linejoin="round" stroke-linecap="round" stroke-width="1.5" d="M0,0L870,412.22222222222223"></path><path transform="translate(0,0)" fill="none" stroke="red" stroke-linejoin="round" stroke-linecap="round" stroke-width="1.5" d="M0,265L870,500.55555555555554"></path><text transform="translate(870,412.22222222222223)" x="6" stroke="steelred" style="font: arial 10px 10px;">Planned</text><text transform="translate(870,500.55555555555554)" x="6" stroke="steelred" style="font: arial 10px 10px;">Achieved</text></g></svg>