<svg xmlns="http://www.w3.org/2000/svg" width="1000" height="700"><g transform="translate(50,20)"><g transform="translate(0,630)" fill="none" font-size="10" font-family="sans-serif" text-anchor="middle"><path class="domain" stroke="currentColor" d="M0.5,6V0.5H870.5V6"></path><g class="tick" opacity="1" transform="translate(0.5,0)"><line stroke="currentColor" y2="6"></line><text fill="currentColor" y="9" dy="0.71em">FRONTEND_2018_CW31-32</text></g><g class="tick" opacity="1" transform="translate(870.5,0)"><line stroke="currentColor" y2="6"></line><text fill="currentColor" y="9" dy="0.71em">FRONTEND_2018_CW33-34</text></g></g><g fill="none" font-size="10" font-family="sans-serif" text-anchor="end"><path class="domain" stroke="currentColor" d="M-6,630.5H0.5V0.5H-6"></path><g class="tick" opacity="1" transform="translate(0,630.5)"><line stroke="currentColor" x2="-6"></line><text fill="currentColor" x="-9" dy="0.32em">0</text></g><g class="tick" opacity="1" transform="translate(0,560.5)"><line stroke="currentColor" x2="-6"></line><text fill="currentColor" x="-9" dy="0.32em">2</text></g><g class="tick" opacity="1" transform="translate(0,490.5)"><line stroke="currentColor" x2="-6"></line><text fill="currentColor" x="-9" dy="0.32em">4</text></g><g class="tick" opacity="1" transform="translate(0,420.5)"><line stroke="currentColor" x2="-6"></line><text fill="currentColor" x="-9" dy="0.32em">6</text></g><g class="tick" opacity="1" transform="translate(0,350.5)"><line stroke="currentColor" x2="-6"></line><text fill="currentColor" x="-9" dy="0.32em">8</text></g><g class="tick" opacity="1" transform="translate(0,280.5)"><line stroke="currentColor" x2="-6"></line><text fill="currentColor" x="-9" dy="0.32em">10</text></g><g class="tick" opacity="1" transform="translate(0,210.5)"><line stroke="currentColor" x2="-6"></line><text fill="currentColor" x="-9" dy="0.32em">12</text></g><g class="tick" opacity="1" transform="translate(0,140.5)"><line stroke="currentColor" x2="-6"></line><text fill="currentColor" x="-9" dy="0.32em">14</text></g><g class="tick" opacity="1" transform="translate(0,70.5)"><line stroke="currentColor" x2="-6"></line><text fill="currentColor" x="-9" dy="0.32em">16</text></g><g class="tick" opacity="1" transform="translate(0,0.5)"><line stroke="currentColor" x2="-6"></line><text fill="currentColor" x="-9" dy="0.32em">18</text></g><text fill="#000" transform="rotate(-90)" y="6" dy="0.71em" text-anchor="end">Store Points<g></g></text></g><path transform="translate(0,0)" fill="none" stroke="steelblue" stroke-linejoin="round" stroke-linecap="round" stroke-width="1.5" d="M0,0L870,490"></path><text transform="translate(870,490)" x="6" fill="steelblue" font-family="sans-serif" font-size="10">Planned</text><path transform="translate(0,0)" fill="none" stroke="red" stroke-linejoin="round" stroke-linecap="round" stroke-width="1.5" d="M0,315L870,595"></path><text transform="translate(870,595)" x="6" fill="steelblue" font-family="sans-serif" font-size="10">Achieved</text><path transform="translate(0,0)" fill="none" stroke="green" stroke-linejoin="round" stroke-linecap="round" stroke-width="1.5" d="M0,504L870,619.3939393939394"></path><text transform="translate(870,619.3939393939394)" x="6" fill="steelblue" font-family="sans-serif" font-size="10">Per Engineer</text><path transform="translate(0,0)" fill="none" stroke="yellow" stroke-linejoin="round" stroke-linecap="round" stroke-width="1.5" d="M0,NaNL870,NaN"></path><text transform="translate(870,NaN)" x="6" fill="steelblue" font-family="sans-serif" font-size="10">Per Engineer MA3</text></g></svg>