<svg xmlns="http://www.w3.org/2000/svg" width="600" height="600"><g transform="translate(50,20)"><g transform="translate(0,530)" fill="none" font-size="10" font-family="sans-serif" text-anchor="middle"><path class="domain" stroke="currentColor" d="M0.5,6V0.5H470.5V6"></path><g class="tick" opacity="1" transform="translate(0.5,0)"><line stroke="currentColor" y2="6"></line><text fill="currentColor" y="9" dy="0.71em">FRONTEND_2018_CW31-32</text></g><g class="tick" opacity="1" transform="translate(470.5,0)"><line stroke="currentColor" y2="6"></line><text fill="currentColor" y="9" dy="0.71em">FRONTEND_2018_CW33-34</text></g></g><g fill="none" font-size="10" font-family="sans-serif" text-anchor="end"><path class="domain" stroke="currentColor" d="M-6,530.5H0.5V0.5H-6"></path><g class="tick" opacity="1" transform="translate(0,530.5)"><line stroke="currentColor" x2="-6"></line><text fill="currentColor" x="-9" dy="0.32em">0.0</text></g><g class="tick" opacity="1" transform="translate(0,450.1969696969697)"><line stroke="currentColor" x2="-6"></line><text fill="currentColor" x="-9" dy="0.32em">0.5</text></g><g class="tick" opacity="1" transform="translate(0,369.8939393939394)"><line stroke="currentColor" x2="-6"></line><text fill="currentColor" x="-9" dy="0.32em">1.0</text></g><g class="tick" opacity="1" transform="translate(0,289.59090909090907)"><line stroke="currentColor" x2="-6"></line><text fill="currentColor" x="-9" dy="0.32em">1.5</text></g><g class="tick" opacity="1" transform="translate(0,209.28787878787875)"><line stroke="currentColor" x2="-6"></line><text fill="currentColor" x="-9" dy="0.32em">2.0</text></g><g class="tick" opacity="1" transform="translate(0,128.9848484848485)"><line stroke="currentColor" x2="-6"></line><text fill="currentColor" x="-9" dy="0.32em">2.5</text></g><g class="tick" opacity="1" transform="translate(0,48.68181818181813)"><line stroke="currentColor" x2="-6"></line><text fill="currentColor" x="-9" dy="0.32em">3.0</text></g><text fill="#000" transform="rotate(-90)" y="6" dy="0.71em" text-anchor="end">Store Points<g></g></text></g><path transform="translate(0,0)" fill="none" stroke="steelblue" stroke-linejoin="round" stroke-linecap="round" stroke-width="1.5" d="M0,128.4848484848485L470,0"></path><text transform="translate(470,0)" x="6" stroke="steelblue" style="font: arial 10px 10px;">Planned</text></g></svg>